<svg xmlns="http://www.w3.org/2000/svg" width="17.076" height="15.986" viewBox="0 0 17.076 15.986"><g transform="translate(0 -19.534)"><g transform="translate(0 19.534)"><g transform="translate(0 0)"><path d="M8.538,34.644l-7.4-3.411c.026.015-.655-.292-1.138-.568,0,.413.1,1.169.488,1.372l7.244,3.257a1.543,1.543,0,0,0,1.61,0l7.244-3.257c.358-.166.489-.95.489-1.372-.466.233-1.125.566-1.138.568Zm0-14.214c.053.062.039.013,0,0Zm-8.05,8.2,7.244,3.257a1.543,1.543,0,0,0,1.61,0l7.244-3.257c.358-.166.489-.95.489-1.372-.466.233-1.125.566-1.138.568l-7.4,3.411-7.4-3.411c.026.015-.655-.292-1.138-.568C0,27.665.1,28.421.488,28.625Zm0-3.411L7.733,28.47a1.543,1.543,0,0,0,1.61,0l7.244-3.257a1,1,0,0,0,0-1.608L9.343,19.78a1.437,1.437,0,0,0-1.61,0L.488,23.605A.98.98,0,0,0,.488,25.214Zm8.05-4.784,7.4,3.98-7.4,3.119-7.4-3.119Z" transform="translate(0 -19.534)" fill="#757575"/></g></g></g></svg>