<svg xmlns="http://www.w3.org/2000/svg" width="17.007" height="18.527" viewBox="0 0 17.007 18.527"><g transform="translate(-21)"><g transform="translate(21)"><path d="M35.516,2.491A8.5,8.5,0,1,0,23.491,14.516a8.545,8.545,0,0,0,1.848,1.405H23.605A2.608,2.608,0,0,0,21,18.527h1.086a1.521,1.521,0,0,1,1.52-1.52h5.9A8.5,8.5,0,0,0,35.516,2.491ZM29.5,15.921A7.418,7.418,0,1,1,36.921,8.5,7.426,7.426,0,0,1,29.5,15.921Z" transform="translate(-21 0)" fill="#757575"/></g><g transform="translate(27.694 2.171)"><path d="M207.809,60a1.809,1.809,0,1,0,1.809,1.809A1.811,1.811,0,0,0,207.809,60Zm0,2.533a.724.724,0,1,1,.724-.724A.725.725,0,0,1,207.809,62.533Z" transform="translate(-206 -60)" fill="#757575"/></g><g transform="translate(23.392 5.296)"><path d="M90.534,147.336a1.809,1.809,0,1,0,.109,1.38A1.8,1.8,0,0,0,90.534,147.336Zm-.924,1.045a.724.724,0,1,1-.043-.552A.725.725,0,0,1,89.61,148.381Z" transform="translate(-87.113 -146.348)" fill="#757575"/></g><g transform="translate(25.035 10.353)"><g transform="translate(0)"><path d="M136.112,287.642a1.809,1.809,0,1,0-1.791,2.093,1.831,1.831,0,0,0,.287-.023,1.809,1.809,0,0,0,1.5-2.07Zm-1.2.708a.724.724,0,1,1-.7-1.14.737.737,0,0,1,.115-.009.724.724,0,0,1,.584,1.149Z" transform="translate(-132.515 -286.116)" fill="#757575"/></g></g><g transform="translate(30.353 10.354)"><path d="M282.763,286.89a1.809,1.809,0,0,0-2.927,2.127h0a1.809,1.809,0,1,0,2.927-2.127Zm-1.038,1.649a.725.725,0,0,1-1.011-.16h0a.724.724,0,1,1,1.011.16Z" transform="translate(-279.491 -286.145)" fill="#757575"/></g><g transform="translate(31.996 5.296)"><path d="M328.408,147.619A1.809,1.809,0,1,0,328.3,149,1.811,1.811,0,0,0,328.408,147.619Zm-1.076.888a.724.724,0,1,1,.043-.552A.719.719,0,0,1,327.332,148.506Z" transform="translate(-324.878 -146.368)" fill="#757575"/></g><g transform="translate(28.78 7.78)"><circle cx="0.724" cy="0.724" r="0.724" fill="#757575"/></g></g></svg>