<svg xmlns="http://www.w3.org/2000/svg" width="20.511" height="22.394" viewBox="0 0 20.511 22.394"><g transform="translate(-16.005 0)"><g transform="translate(16.005 15.805)"><g transform="translate(0)"><path d="M33.348,268.65H30.71a3.152,3.152,0,0,0-1.555.409,3.208,3.208,0,0,0-1.024.92,3.163,3.163,0,0,0-.546-.047h-2.64a3.157,3.157,0,0,0-.546.047,3.205,3.205,0,0,0-1.024-.92,3.152,3.152,0,0,0-1.556-.409H19.182a3.184,3.184,0,0,0-3.177,3.177v1.791a.341.341,0,0,0,.341.339h5.412v.941a.341.341,0,0,0,.341.341h8.321a.341.341,0,0,0,.341-.341v-.941h5.412a.341.341,0,0,0,.341-.341v-1.788A3.184,3.184,0,0,0,33.348,268.65ZM21.794,272.8v.471H16.687v-1.447a2.5,2.5,0,0,1,2.494-2.494H21.82a2.471,2.471,0,0,1,1.219.32,2.535,2.535,0,0,1,.661.539A3.193,3.193,0,0,0,21.794,272.8Zm8.279.306v1.45H22.451v-1.984l.014-.056.024-.085.016-.056a2.509,2.509,0,0,1,2.372-1.723l.068-.038h2.64a2.5,2.5,0,0,1,2.473,2.177.579.579,0,0,0,.014.155Zm5.77.167H30.76v-.988l-.016-.059v-.115l-.033-.092a3.2,3.2,0,0,0-1.732-1.814,2.534,2.534,0,0,1,.511-.555,2.471,2.471,0,0,1,1.219-.32h2.64a2.5,2.5,0,0,1,2.494,2.494Z" transform="translate(-16.005 -268.65)" fill="#757575"/></g></g><g transform="translate(25.893 4.194)"><circle cx="0.386" cy="0.386" r="0.386" fill="#757575"/></g><g transform="translate(18.095 10.423)"><path d="M55.633,177.876a2.4,2.4,0,1,0,.7,1.7A2.393,2.393,0,0,0,55.633,177.876Zm-.482,2.911a1.72,1.72,0,1,1,.5-1.217A1.72,1.72,0,0,1,55.15,180.787Z" transform="translate(-51.529 -177.17)" fill="#757575"/></g><g transform="translate(28.388 4.194)"><circle cx="0.386" cy="0.386" r="0.386" fill="#757575"/></g><g transform="translate(20.54 0)"><g transform="translate(0 0)"><path d="M102.83,1.337a6.712,6.712,0,0,0-8.039,0,4.252,4.252,0,0,0-1.706,3.311,3.911,3.911,0,0,0,.487,1.883,4.754,4.754,0,0,0,1.2,1.412l-.271,1.8a.339.339,0,0,0,.506.344l1.84-1.073a6.725,6.725,0,0,0,.89.2,7.063,7.063,0,0,0,1.078.082,6.45,6.45,0,0,0,4.019-1.337,4.26,4.26,0,0,0,1.7-3.311A4.252,4.252,0,0,0,102.83,1.337Zm-.424,6.095a5.768,5.768,0,0,1-3.6,1.177,6.384,6.384,0,0,1-.972-.073,6.046,6.046,0,0,1-.941-.219.339.339,0,0,0-.273.031l-1.344.793.2-1.294a.341.341,0,0,0-.139-.327A4.13,4.13,0,0,1,94.16,6.2a3.234,3.234,0,0,1-.4-1.553,3.583,3.583,0,0,1,1.447-2.782,6.083,6.083,0,0,1,7.192,0,3.569,3.569,0,0,1,1.447,2.782A3.584,3.584,0,0,1,102.406,7.432Z" transform="translate(-93.085 0)" fill="#757575"/></g></g><g transform="translate(29.628 10.421)"><path d="M249.967,177.13a2.4,2.4,0,1,0,2.4,2.4A2.4,2.4,0,0,0,249.967,177.13Zm1.215,3.618a1.72,1.72,0,1,1,0-2.433A1.72,1.72,0,0,1,251.181,180.748Z" transform="translate(-247.562 -177.13)" fill="#757575"/></g><g transform="translate(23.399 4.194)"><circle cx="0.386" cy="0.386" r="0.386" fill="#757575"/></g><g transform="translate(23.866 11.703)"><path d="M153.719,199.63a2.4,2.4,0,1,0,.006,3.395A2.4,2.4,0,0,0,153.719,199.63Zm-1.7,3.425a1.72,1.72,0,1,1,1.721-1.72A1.72,1.72,0,0,1,152.023,203.055Z" transform="translate(-149.625 -198.93)" fill="#757575"/></g></g></svg>