<svg xmlns="http://www.w3.org/2000/svg" width="17.074" height="16.23" viewBox="0 0 17.074 16.23"><path d="M8.821,1.255l4.061,3.779,4.061,3.779a.422.422,0,0,1,.023.587.413.413,0,0,1-.305.129v.006H14.607v7.418a.418.418,0,0,1-.417.417H10.957a.413.413,0,0,1-.411-.417v-5.7H6.532v5.7a.418.418,0,0,1-.417.417H2.881a.413.413,0,0,1-.411-.417V9.536H.411A.417.417,0,0,1,.153,8.8L4.2,5.035,8.257,1.249a.41.41,0,0,1,.563.006Zm3.5,4.384L8.539,2.118,4.759,5.639,1.467,8.7H2.881A.418.418,0,0,1,3.3,9.12v7.418H5.7v-5.7a.413.413,0,0,1,.411-.417h4.842a.418.418,0,0,1,.417.417v5.7H13.78V9.119a.413.413,0,0,1,.411-.417h1.42Z" transform="translate(0 -1.14)" fill="#757575"/></svg>