<svg xmlns="http://www.w3.org/2000/svg" width="18.324" height="15.437" viewBox="0 0 18.324 15.437"><g transform="translate(0 -58.95)"><path d="M0,61.524V71.813a2.579,2.579,0,0,0,2.574,2.574h8.315a2.579,2.579,0,0,0,2.574-2.574V70.146a.51.51,0,1,0-1.02,0v1.666a1.562,1.562,0,0,1-1.559,1.559H2.574a1.562,1.562,0,0,1-1.559-1.559V61.524a1.562,1.562,0,0,1,1.559-1.559h8.315a1.562,1.562,0,0,1,1.559,1.559v1.666a.51.51,0,1,0,1.02,0V61.524a2.579,2.579,0,0,0-2.574-2.574H2.574A2.577,2.577,0,0,0,0,61.524Z" fill="#757575"/><path d="M213.724,156.772a.51.51,0,0,0,.721,0l3.478-3.478a.505.505,0,0,0,0-.717l-3.478-3.478a.507.507,0,1,0-.717.717l2.611,2.611h-9.53a.51.51,0,0,0,0,1.02h9.526l-2.611,2.611A.5.5,0,0,0,213.724,156.772Z" transform="translate(224.624 219.602) rotate(180)" fill="#757575"/></g></svg>