<svg xmlns="http://www.w3.org/2000/svg" width="17.153" height="17.093" viewBox="0 0 17.153 17.093"><g transform="translate(0 -0.546)"><g transform="translate(0 0.546)"><path d="M16.748,10.274a.6.6,0,0,0-.5.11,6.431,6.431,0,0,1-1.951,1.14,6.11,6.11,0,0,1-2.214.395A6.437,6.437,0,0,1,5.634,5.474a6.756,6.756,0,0,1,.351-2.126A5.886,5.886,0,0,1,7.037,1.462.56.56,0,0,0,6.949.673a.6.6,0,0,0-.5-.11A8.846,8.846,0,0,0,1.8,3.676a8.678,8.678,0,1,0,15.323,7.3A.52.52,0,0,0,16.748,10.274Zm-3.354,4.582A7.546,7.546,0,0,1,1.184,8.937,7.413,7.413,0,0,1,2.74,4.356a7.537,7.537,0,0,1,2.521-2.1A7.572,7.572,0,0,0,4.954,3a7.294,7.294,0,0,0-.417,2.5A7.559,7.559,0,0,0,12.1,13.058a7.339,7.339,0,0,0,2.609-.46c.285-.11.57-.219.833-.351A7.976,7.976,0,0,1,13.394,14.856Z" transform="translate(0 -0.546)" fill="#757575"/></g></g></svg>