<svg xmlns="http://www.w3.org/2000/svg" width="14.591" height="17.402" viewBox="0 0 14.591 17.402"><g transform="translate(-5.314)"><g transform="translate(5.314)"><path d="M7.13,17.4c-1.081,0-1.816-.869-1.816-2.162V2.162C5.314.869,6.049,0,7.131,0A2.592,2.592,0,0,1,8.419.381L18.713,6.932A2.092,2.092,0,0,1,19.905,8.7a2.1,2.1,0,0,1-1.208,1.78L8.438,17.009A2.616,2.616,0,0,1,7.13,17.4Zm0-16.344c-.678,0-.759.772-.759,1.1V15.24c0,.332.081,1.1.759,1.1a1.584,1.584,0,0,0,.759-.239L18.148,9.577c.451-.261.7-.576.7-.875s-.248-.616-.68-.865L7.87,1.286A1.556,1.556,0,0,0,7.131,1.058Z" transform="translate(-5.314)" fill="#757575"/><g transform="translate(2.935 11.508)"><g transform="translate(3.874)"><path d="M31.325,44.133a.265.265,0,0,1-.141-.488l.143-.09a.264.264,0,1,1,.282.447l-.143.09A.259.259,0,0,1,31.325,44.133Z" transform="translate(-31.06 -43.514)" fill="#757575"/></g><g transform="translate(0 0.659)"><path d="M16.676,48.4a.265.265,0,0,1-.141-.489L19.5,46.048a.264.264,0,1,1,.282.447l-2.968,1.867A.263.263,0,0,1,16.676,48.4Z" transform="translate(-16.411 -46.007)" fill="#757575"/></g></g></g></g></svg>