<svg xmlns="http://www.w3.org/2000/svg" width="23.975" height="23.975" viewBox="0 0 23.975 23.975"><g transform="translate(0)"><path d="M23.622,17.134c-2.82-2.821-3.244-4.236-3.244-8.743a8.39,8.39,0,1,0-16.779,0,14.176,14.176,0,0,1-.4,4.451A10.281,10.281,0,0,1,.353,17.134,1.2,1.2,0,0,0,1.2,19.18H7.853l-.06.6a4.195,4.195,0,1,0,8.39,0l-.06-.6h6.652A1.2,1.2,0,0,0,23.622,17.134ZM11.988,22.776a3,3,0,0,1-3-3l.06-.6h5.871l.061.6A3,3,0,0,1,11.988,22.776ZM1.2,17.981c3.6-3.6,3.6-5.994,3.6-9.59a7.191,7.191,0,1,1,14.382,0c0,3.6,0,5.994,3.6,9.59Z" transform="translate(0)" fill="#bebebe"/></g></svg>