<svg xmlns="http://www.w3.org/2000/svg" width="18.048" height="18.048" viewBox="0 0 18.048 18.048"><path d="M17.119,7.019H15.43a.648.648,0,0,1-.459-1.107l1.194-1.193a.93.93,0,0,0,0-1.314L14.644,1.882a.952.952,0,0,0-1.314,0L12.136,3.076a.648.648,0,0,1-1.107-.458V.929A.93.93,0,0,0,10.1,0H7.948a.93.93,0,0,0-.929.929V2.618a.648.648,0,0,1-1.107.458L4.718,1.882a.952.952,0,0,0-1.314,0L1.882,3.4a.93.93,0,0,0,0,1.314L3.076,5.912a.648.648,0,0,1-.459,1.107H.929A.93.93,0,0,0,0,7.948V10.1a.93.93,0,0,0,.929.929H2.618a.648.648,0,0,1,.459,1.107L1.882,13.329a.93.93,0,0,0,0,1.314L3.4,16.165a.951.951,0,0,0,1.314,0l1.193-1.194a.648.648,0,0,1,1.107.459v1.688a.93.93,0,0,0,.929.929H10.1a.93.93,0,0,0,.929-.929V15.43a.648.648,0,0,1,1.107-.459l1.193,1.194a.952.952,0,0,0,1.314,0l1.522-1.522a.93.93,0,0,0,0-1.314l-1.194-1.193a.648.648,0,0,1,.459-1.107h1.688a.93.93,0,0,0,.929-.929V7.948A.93.93,0,0,0,17.119,7.019Zm.261,3.081a.261.261,0,0,1-.261.261H15.43a1.317,1.317,0,0,0-.931,2.248L15.693,13.8a.261.261,0,0,1,0,.369l-1.522,1.522a.261.261,0,0,1-.369,0L12.609,14.5a1.317,1.317,0,0,0-2.248.931v1.688a.261.261,0,0,1-.261.261H7.948a.261.261,0,0,1-.261-.261V15.43a1.3,1.3,0,0,0-.813-1.217,1.332,1.332,0,0,0-.512-.1,1.3,1.3,0,0,0-.923.389L4.246,15.693a.261.261,0,0,1-.369,0L2.355,14.171a.261.261,0,0,1,0-.369l1.194-1.193a1.317,1.317,0,0,0-.931-2.248H.929A.261.261,0,0,1,.668,10.1V7.948a.261.261,0,0,1,.261-.261H2.618a1.317,1.317,0,0,0,.931-2.248L2.355,4.246a.261.261,0,0,1,0-.369L3.877,2.355a.261.261,0,0,1,.369,0L5.439,3.548a1.317,1.317,0,0,0,2.248-.931V.929A.261.261,0,0,1,7.948.668H10.1a.261.261,0,0,1,.261.261V2.618a1.317,1.317,0,0,0,2.248.931L13.8,2.355a.261.261,0,0,1,.369,0l1.522,1.522a.261.261,0,0,1,0,.369L14.5,5.439a1.317,1.317,0,0,0,.931,2.248h1.688a.261.261,0,0,1,.261.26Z" fill="#757575"/><path d="M21.008,18a3.008,3.008,0,1,0,3.008,3.008A3.011,3.011,0,0,0,21.008,18Zm0,5.347a2.34,2.34,0,1,1,2.34-2.34A2.343,2.343,0,0,1,21.008,23.347Z" transform="translate(-11.984 -11.984)" fill="#757575"/></svg>